Coordinates
version=1
nRows=5
nColumns=40
inDegrees=yes

Units are S.I. units (second, meters, Newtons, ...)
If the header above contains a line with 'inDegrees', this indicates whether rotational values are in degrees (yes) or radians (no).

endheader
time	pelvis_tilt	pelvis_list	pelvis_rotation	pelvis_tx	pelvis_ty	pelvis_tz	hip_flexion_r	hip_adduction_r	hip_rotation_r	knee_angle_r	knee_angle_r_beta	ankle_angle_r	subtalar_angle_r	mtp_angle_r	hip_flexion_l	hip_adduction_l	hip_rotation_l	knee_angle_l	knee_angle_l_beta	ankle_angle_l	subtalar_angle_l	mtp_angle_l	lumbar_extension	lumbar_bending	lumbar_rotation	arm_flex_r	arm_add_r	arm_rot_r	elbow_flex_r	pro_sup_r	wrist_flex_r	wrist_dev_r	arm_flex_l	arm_add_l	arm_rot_l	elbow_flex_l	pro_sup_l	wrist_flex_l	wrist_dev_l
      0.32000000	     86.54732396	     75.94466430	    -84.09970162	      0.52889958	      0.32569017	      0.97219305	    -11.01599328	      5.50802616	     -3.35717067	     12.37458258	      0.21597721	     -5.52483021	      0.00000000	      0.00000000	      0.79217822	     -6.01192159	     -0.48843373	     57.33897246	      1.00075386	    -10.70046213	      0.00000000	      0.00000000	    -23.48763223	      3.99223244	     -1.50474777	      3.61088839	    -17.26490914	     18.05178623	     41.49631327	     79.61357953	      0.00000000	      0.00000000	     -3.68529471	    -21.13709322	     17.70853101	     44.52285695	     79.60445741	      0.00000000	      0.00000000
      0.32400000	     86.49133014	     75.91856053	    -84.16455039	      0.53371428	      0.32534697	      0.97250767	    -11.40288592	      5.52185655	     -3.47532186	     12.31813543	      0.21499202	     -5.47540598	      0.00000000	      0.00000000	      1.44037322	     -6.01777044	     -0.51227642	     57.09059935	      0.99641893	    -10.53114952	      0.00000000	      0.00000000	    -23.61155462	      3.93459903	     -1.37762633	      3.91467041	    -17.17643439	     18.04313397	     41.64594606	     79.61249393	      0.00000000	      0.00000000	     -3.72375390	    -21.17387230	     17.69865963	     44.44307284	     79.58502110	      0.00000000	      0.00000000
      0.32800000	     86.45878964	     75.95955865	    -84.39021220	      0.53834232	      0.32521981	      0.97267253	    -11.85731077	      5.49759798	     -3.32685339	     11.91806172	      0.20800942	     -5.44926470	      0.00000000	      0.00000000	      2.05560389	     -5.91526399	     -0.56967978	     56.74101051	      0.99031745	     -9.82535773	      0.00000000	      0.00000000	    -23.65948911	      3.82670568	     -1.05243712	      4.12980486	    -17.25863384	     18.12419762	     41.92617208	     79.59705261	      0.00000000	      0.00000000	     -3.93657244	    -21.18068598	     17.57033587	     44.77712233	     79.53884549	      0.00000000	      0.00000000
      0.33200000	     86.41303832	     75.94213499	    -84.45445712	      0.54311819	      0.32483687	      0.97287433	    -12.24601005	      5.51310908	     -3.43528491	     11.82075910	      0.20631117	     -5.39606145	      0.00000000	      0.00000000	      2.70832709	     -5.92922733	     -0.63350519	     56.42864567	      0.98486566	     -9.62964702	      0.00000000	      0.00000000	    -23.76381241	      3.76448550	     -0.93689031	      4.44394565	    -17.17528052	     18.11502846	     42.10720974	     79.59346161	      0.00000000	      0.00000000	     -3.94383306	    -21.23735227	     17.51802041	     44.64681269	     79.50859892	      0.00000000	      0.00000000
      0.33600000	     86.31822068	     75.95925259	    -84.53273974	      0.54797844	      0.32477345	      0.97292920	    -12.61898866	      5.51251347	     -3.55638000	     11.70121118	      0.20422466	     -5.31897619	      0.00000000	      0.00000000	      3.30716402	     -5.81145336	     -0.57143478	     56.12014231	      0.97948126	     -9.53546962	      0.00000000	      0.00000000	    -23.79801213	      3.70654431	     -0.71822075	      4.74883114	    -17.19688554	     18.07140928	     42.28911913	     79.56716022	      0.00000000	      0.00000000	     -4.10124507	    -21.27652992	     17.48140212	     44.64256509	     79.48524170	      0.00000000	      0.00000000
